<svg width="50" height="50" viewBox="0 0 180 102" fill="none" xmlns="http://www.w3.org/2000/svg">
<g filter="url(#filter0_d_1_2)">
<path d="M37.7273 94H4.27273L19.7273 0.909088H52.5455C61.9091 0.909088 69.6818 2.81818 75.8636 6.63636C82.0758 10.4545 86.4545 15.9242 89 23.0455C91.5455 30.1364 92 38.6061 90.3636 48.4545C88.7879 57.9697 85.6515 66.1364 80.9545 72.9545C76.2576 79.7424 70.2424 84.9545 62.9091 88.5909C55.5758 92.197 47.1818 94 37.7273 94ZM26.7727 77.1364H38.8636C44.7121 77.1364 49.8333 76.0455 54.2273 73.8636C58.6515 71.6818 62.2727 68.3182 65.0909 63.7727C67.9394 59.2273 69.9545 53.4091 71.1364 46.3182C72.2576 39.5909 72.1818 34.1364 70.9091 29.9545C69.6667 25.7424 67.2576 22.6667 63.6818 20.7273C60.1061 18.7576 55.4091 17.7727 49.5909 17.7727H36.6364L26.7727 77.1364ZM97.3977 94L112.852 0.909088H175.58L172.852 17.1364H129.807L126.17 39.3182H165.989L163.261 55.5455H123.443L119.807 77.7727H163.034L160.307 94H97.3977Z" fill="black"/>
<path d="M4.27273 94L3.28623 93.8362L3.09302 95H4.27273V94ZM19.7273 0.909088V-0.0909119H18.8796L18.7408 0.745314L19.7273 0.909088ZM75.8636 6.63636L75.3381 7.48716L75.34 7.4883L75.8636 6.63636ZM89 23.0455L88.0583 23.382L88.0588 23.3833L89 23.0455ZM90.3636 48.4545L89.3772 48.2906L89.3771 48.2912L90.3636 48.4545ZM80.9545 72.9545L81.7769 73.5236L81.7781 73.5218L80.9545 72.9545ZM62.9091 88.5909L63.3504 89.4883L63.3533 89.4868L62.9091 88.5909ZM26.7727 77.1364L25.7863 76.9725L25.5929 78.1364H26.7727V77.1364ZM54.2273 73.8636L53.785 72.9668L53.7825 72.968L54.2273 73.8636ZM65.0909 63.7727L64.2435 63.2417L64.241 63.2458L65.0909 63.7727ZM71.1364 46.3182L72.1228 46.4826L72.1228 46.4826L71.1364 46.3182ZM70.9091 29.9545L69.9499 30.2375L69.9524 30.2457L70.9091 29.9545ZM63.6818 20.7273L63.1993 21.6032L63.2051 21.6063L63.6818 20.7273ZM36.6364 17.7727V16.7727H35.7888L35.6499 17.6088L36.6364 17.7727ZM37.7273 93H4.27273V95H37.7273V93ZM5.25923 94.1638L20.7138 1.07286L18.7408 0.745314L3.28623 93.8362L5.25923 94.1638ZM19.7273 1.90909H52.5455V-0.0909119H19.7273V1.90909ZM52.5455 1.90909C61.7762 1.90909 69.3538 3.79094 75.3381 7.48716L76.3891 5.78556C70.0098 1.84541 62.042 -0.0909119 52.5455 -0.0909119V1.90909ZM75.34 7.4883C81.3505 11.1826 85.5864 16.4666 88.0583 23.382L89.9417 22.7089C87.3227 15.3819 82.801 9.7265 76.3873 5.78442L75.34 7.4883ZM88.0588 23.3833C90.5308 30.2697 90.9943 38.5576 89.3772 48.2906L91.3501 48.6185C93.0057 38.6545 92.5601 30.003 89.9412 22.7076L88.0588 23.3833ZM89.3771 48.2912C87.8214 57.6851 84.732 65.7085 80.131 72.3872L81.7781 73.5218C86.5711 66.5643 89.7544 58.2543 91.3502 48.6179L89.3771 48.2912ZM80.1322 72.3855C75.5307 79.0354 69.6452 84.1345 62.4648 87.695L63.3533 89.4868C70.8397 85.7746 76.9844 80.4494 81.7769 73.5236L80.1322 72.3855ZM62.4678 87.6935C55.2918 91.2222 47.0528 93 37.7273 93V95C47.3108 95 55.8597 93.1717 63.3504 89.4883L62.4678 87.6935ZM26.7727 78.1364H38.8636V76.1364H26.7727V78.1364ZM38.8636 78.1364C44.837 78.1364 50.1157 77.0217 54.672 74.7593L53.7825 72.968C49.5509 75.0692 44.5872 76.1364 38.8636 76.1364V78.1364ZM54.6696 74.7605C59.2757 72.489 63.0327 68.9902 65.9408 64.2997L64.241 63.2458C61.5128 67.6461 58.0273 70.8746 53.785 72.9668L54.6696 74.7605ZM65.9383 64.3037C68.8763 59.6154 70.9262 53.6619 72.1228 46.4826L70.15 46.1538C68.9829 53.1563 67.0025 58.8391 64.2435 63.2417L65.9383 64.3037ZM72.1228 46.4826C73.2565 39.68 73.2016 34.0525 71.8658 29.6634L69.9524 30.2457C71.1621 34.2202 71.2586 39.5018 70.15 46.1538L72.1228 46.4826ZM71.8682 29.6716C70.5572 25.227 67.9877 21.9251 64.1586 19.8482L63.2051 21.6063C66.5274 23.4083 68.7761 26.2578 69.95 30.2375L71.8682 29.6716ZM64.1643 19.8514C60.3912 17.773 55.5104 16.7727 49.5909 16.7727V18.7727C55.3078 18.7727 59.8209 19.7422 63.1993 21.6032L64.1643 19.8514ZM49.5909 16.7727H36.6364V18.7727H49.5909V16.7727ZM35.6499 17.6088L25.7863 76.9725L27.7592 77.3003L37.6228 17.9366L35.6499 17.6088ZM97.3977 94L96.4112 93.8362L96.218 95H97.3977V94ZM112.852 0.909088V-0.0909119H112.005L111.866 0.745314L112.852 0.909088ZM175.58 0.909088L176.566 1.07483L176.762 -0.0909119H175.58V0.909088ZM172.852 17.1364V18.1364H173.698L173.838 17.3021L172.852 17.1364ZM129.807 17.1364V16.1364H128.957L128.82 16.9746L129.807 17.1364ZM126.17 39.3182L125.184 39.1564L124.993 40.3182H126.17V39.3182ZM165.989 39.3182L166.975 39.4839L167.171 38.3182H165.989V39.3182ZM163.261 55.5455V56.5455H164.107L164.248 55.7112L163.261 55.5455ZM123.443 55.5455V54.5455H122.593L122.456 55.384L123.443 55.5455ZM119.807 77.7727L118.82 77.6113L118.63 78.7727H119.807V77.7727ZM163.034 77.7727L164.02 77.9385L164.216 76.7727H163.034V77.7727ZM160.307 94V95H161.153L161.293 94.1657L160.307 94ZM98.3842 94.1638L113.839 1.07286L111.866 0.745314L96.4112 93.8362L98.3842 94.1638ZM112.852 1.90909H175.58V-0.0909119H112.852V1.90909ZM174.593 0.743345L171.866 16.9706L173.838 17.3021L176.566 1.07483L174.593 0.743345ZM172.852 16.1364H129.807V18.1364H172.852V16.1364ZM128.82 16.9746L125.184 39.1564L127.157 39.48L130.794 17.2981L128.82 16.9746ZM126.17 40.3182H165.989V38.3182H126.17V40.3182ZM165.002 39.1524L162.275 55.3797L164.248 55.7112L166.975 39.4839L165.002 39.1524ZM163.261 54.5455H123.443V56.5455H163.261V54.5455ZM122.456 55.384L118.82 77.6113L120.794 77.9342L124.43 55.7069L122.456 55.384ZM119.807 78.7727H163.034V76.7727H119.807V78.7727ZM162.048 77.607L159.321 93.8343L161.293 94.1657L164.02 77.9385L162.048 77.607ZM160.307 93H97.3977V95H160.307V93Z" fill="black"/>
</g>
<defs>
<filter id="filter0_d_1_2" x="0.272736" y="0.909088" width="179.307" height="101.091" filterUnits="userSpaceOnUse" color-interpolation-filters="sRGB">
<feFlood flood-opacity="0" result="BackgroundImageFix"/>
<feColorMatrix in="SourceAlpha" type="matrix" values="0 0 0 0 0 0 0 0 0 0 0 0 0 0 0 0 0 0 127 0" result="hardAlpha"/>
<feOffset dy="4"/>
<feGaussianBlur stdDeviation="2"/>
<feComposite in2="hardAlpha" operator="out"/>
<feColorMatrix type="matrix" values="0 0 0 0 0 0 0 0 0 0 0 0 0 0 0 0 0 0 0.25 0"/>
<feBlend mode="normal" in2="BackgroundImageFix" result="effect1_dropShadow_1_2"/>
<feBlend mode="normal" in="SourceGraphic" in2="effect1_dropShadow_1_2" result="shape"/>
</filter>
</defs>
</svg>
